<?xml version="1.0" encoding="iso-8859-1"?>
<!-- Generator: Adobe Illustrator 19.0.0, SVG Export Plug-In . SVG Version: 6.00 Build 0)  -->
<svg version="1.1" id="Layer_1" xmlns="http://www.w3.org/2000/svg" xmlns:xlink="http://www.w3.org/1999/xlink" x="0px" y="0px"
	 viewBox="0 0 512 512" style="enable-background:new 0 0 512 512;" xml:space="preserve">
<path style="fill:#CEE8FA;" d="M497.389,251.468c-2.114-30.642-26.354-55.82-56.907-58.975
	c-18.916-1.954-36.372,4.359-49.199,15.764c-8.378,7.447-18.991,11.605-29.989,12.311v71.046
	c11.112,0.801,21.826,4.982,30.344,12.443c11.232,9.839,25.944,15.803,42.049,15.803
	C470.454,319.86,499.965,288.787,497.389,251.468z"/>
<g>
	<path style="fill:#2D527C;" d="M433.686,334.311c-18.988,0-37.304-6.885-51.572-19.383c-5.96-5.22-13.518-8.298-21.858-8.898
		c-7.558-0.545-13.414-6.836-13.414-14.416v-71.046c0-7.622,5.919-13.934,13.527-14.421c8.018-0.514,15.588-3.6,21.312-8.69
		c14.338-12.746,32.807-19.767,52.007-19.767c2.743,0,5.529,0.145,8.279,0.428c37.235,3.846,67.26,34.953,69.839,72.355
		c1.517,21.977-5.892,42.911-20.861,58.95C476.183,325.241,455.313,334.311,433.686,334.311z M375.745,279.502
		c9.425,2.611,18.053,7.237,25.413,13.684c8.998,7.882,20.549,12.222,32.528,12.222c13.845,0,26.675-5.577,36.129-15.705
		c9.443-10.118,14.115-23.341,13.157-37.239c-1.626-23.574-20.532-43.175-43.974-45.595c-13.962-1.448-27.762,2.986-38.114,12.19
		c-7.156,6.362-15.803,11.015-25.14,13.631v46.812H375.745z"/>
	<path style="fill:#2D527C;" d="M309.989,451.099h-94.735c-4.304,0-8.383-1.918-11.129-5.233s-3.87-7.68-3.07-11.908
		c2.207-11.645,7.368-22.361,14.926-30.989c7.882-8.999,12.223-20.55,12.223-32.528c0-13.892-5.61-26.754-15.797-36.215
		c-10.177-9.45-23.458-14.086-37.413-13.051c-23.266,1.724-43.656,22.05-45.452,45.308c-0.614,7.959-7.565,13.879-15.521,13.296
		c-7.957-0.616-13.91-7.564-13.296-15.523c2.899-37.537,34.584-69.12,72.133-71.905c22.05-1.63,43.085,5.714,59.217,20.696
		c15.908,14.773,25.033,35.691,25.033,57.394c0,18.987-6.883,37.303-19.384,51.572c-0.053,0.061-0.107,0.123-0.159,0.184h72.423
		c20.321,0,36.852-16.531,36.852-36.852V126.659c0-20.321-16.531-36.852-36.852-36.852h-94.951c-7.982,0-14.452-6.471-14.452-14.452
		s6.47-14.452,14.452-14.452h94.951c36.258,0,65.755,29.497,65.755,65.755v258.686C375.745,421.601,346.247,451.099,309.989,451.099
		z"/>
	<path style="fill:#2D527C;" d="M142.552,451.099H65.755C29.497,451.099,0,421.601,0,385.343V126.657
		c0-36.258,29.497-65.755,65.755-65.755h76.581c4.304,0,8.383,1.918,11.129,5.233c2.744,3.314,3.87,7.678,3.07,11.908
		c-2.205,11.645-7.366,22.361-14.924,30.989c-7.882,8.999-12.223,20.55-12.223,32.528c0,13.892,5.61,26.754,15.797,36.215
		c10.177,9.451,23.464,14.088,37.413,13.051c23.266-1.724,43.656-22.05,45.452-45.308c0.614-7.957,7.57-13.878,15.521-13.296
		c7.957,0.616,13.91,7.564,13.296,15.523c-2.899,37.537-34.583,69.12-72.133,71.905c-22.046,1.632-43.085-5.717-59.217-20.696
		c-15.908-14.774-25.033-35.691-25.033-57.394c0-18.987,6.883-37.303,19.384-51.572c0.053-0.061,0.107-0.123,0.159-0.184H65.755
		c-20.321,0-36.852,16.531-36.852,36.852v258.686c0,20.321,16.531,36.852,36.852,36.852h76.796c7.982,0,14.452,6.471,14.452,14.452
		C157.004,444.626,150.533,451.099,142.552,451.099z"/>
</g>
<g>
</g>
<g>
</g>
<g>
</g>
<g>
</g>
<g>
</g>
<g>
</g>
<g>
</g>
<g>
</g>
<g>
</g>
<g>
</g>
<g>
</g>
<g>
</g>
<g>
</g>
<g>
</g>
<g>
</g>
</svg>
